<svg width="31" height="31" viewBox="0 0 31 31" fill="none" xmlns="http://www.w3.org/2000/svg">
<rect x="0.910156" y="1.32031" width="29" height="29" rx="14.5" fill="#F2F2F2"/>
<rect x="0.910156" y="1.32031" width="29" height="29" rx="14.5" stroke="#F2F2F2"/>
<g clip-path="url(#clip0_349_4622)">
<g clip-path="url(#clip1_349_4622)">
<g clip-path="url(#clip2_349_4622)">
<path d="M15.4102 22.5703C13.6199 22.5703 11.9031 21.8592 10.6372 20.5933C9.37132 19.3274 8.66016 17.6105 8.66016 15.8203C8.66016 14.9339 8.83475 14.0561 9.17397 13.2372C9.51319 12.4183 10.0104 11.6741 10.6372 11.0473C11.264 10.4205 12.0081 9.92334 12.827 9.58413C13.646 9.24491 14.5237 9.07031 15.4102 9.07031C16.2966 9.07031 17.1743 9.24491 17.9933 9.58413C18.8122 9.92334 19.5563 10.4205 20.1831 11.0473C20.8099 11.6741 21.3071 12.4183 21.6463 13.2372C21.9856 14.0561 22.1602 14.9339 22.1602 15.8203" stroke="#01010B" stroke-width="1.5" stroke-linecap="round" stroke-linejoin="round"/>
<path d="M15.4102 12.0703V15.8203L15.7852 16.1953" stroke="#01010B" stroke-width="1.5" stroke-linecap="round" stroke-linejoin="round"/>
<path d="M19.9102 18.0703H21.4102C21.6091 18.0703 21.7998 18.1493 21.9405 18.29C22.0811 18.4306 22.1602 18.6214 22.1602 18.8203V19.5703C22.1602 19.7692 22.0811 19.96 21.9405 20.1006C21.7998 20.2413 21.6091 20.3203 21.4102 20.3203H20.6602C20.4612 20.3203 20.2705 20.3993 20.1298 20.54C19.9892 20.6806 19.9102 20.8714 19.9102 21.0703V21.8203C19.9102 22.0192 19.9892 22.21 20.1298 22.3506C20.2705 22.4913 20.4612 22.5703 20.6602 22.5703H22.1602" stroke="#01010B" stroke-width="1.5" stroke-linecap="round" stroke-linejoin="round"/>
<path d="M17.6602 22.5703V18.0703" stroke="#01010B" stroke-width="1.5" stroke-linecap="round" stroke-linejoin="round"/>
</g>
</g>
</g>
<defs>
<clipPath id="clip0_349_4622">
<rect width="16" height="16" fill="white" transform="translate(7.41016 7.82031)"/>
</clipPath>
<clipPath id="clip1_349_4622">
<rect width="16" height="16" fill="white" transform="translate(7.41016 7.82031)"/>
</clipPath>
<clipPath id="clip2_349_4622">
<rect width="18" height="18" fill="white" transform="translate(6.41016 6.82031)"/>
</clipPath>
</defs>
</svg>
