<svg width="31" height="31" viewBox="0 0 31 31" fill="none" xmlns="http://www.w3.org/2000/svg">
<rect x="1.31055" y="1.32031" width="29" height="29" rx="14.5" fill="#F2F2F2"/>
<rect x="1.31055" y="1.32031" width="29" height="29" rx="14.5" stroke="#F2F2F2"/>
<g clip-path="url(#clip0_349_4634)">
<g clip-path="url(#clip1_349_4634)">
<g clip-path="url(#clip2_349_4634)">
<path d="M9.06055 15.8203C9.06055 17.1553 9.45643 18.4604 10.1981 19.5704C10.9398 20.6804 11.994 21.5456 13.2274 22.0565C14.4608 22.5674 15.818 22.7011 17.1274 22.4406C18.4368 22.1802 19.6395 21.5373 20.5835 20.5933C21.5275 19.6493 22.1704 18.4465 22.4308 17.1372C22.6913 15.8278 22.5576 14.4706 22.0467 13.2372C21.5358 12.0038 20.6707 10.9496 19.5606 10.2079C18.4506 9.46619 17.1456 9.07031 15.8105 9.07031C14.0203 9.07031 12.3034 9.78147 11.0376 11.0473C9.77171 12.3132 9.06055 14.0301 9.06055 15.8203Z" stroke="#01010B" stroke-width="1.5" stroke-linecap="round" stroke-linejoin="round"/>
<path d="M17.9105 13.5704C17.7747 13.3348 17.5773 13.1405 17.3395 13.0083C17.1017 12.8762 16.8324 12.8113 16.5605 12.8204H15.0605C14.6627 12.8204 14.2812 12.9785 13.9999 13.2598C13.7186 13.5411 13.5605 13.9226 13.5605 14.3204C13.5605 14.7183 13.7186 15.0998 13.9999 15.3811C14.2812 15.6624 14.6627 15.8204 15.0605 15.8204H16.5605C16.9584 15.8204 17.3399 15.9785 17.6212 16.2598C17.9025 16.5411 18.0605 16.9226 18.0605 17.3204C18.0605 17.7183 17.9025 18.0998 17.6212 18.3811C17.3399 18.6624 16.9584 18.8204 16.5605 18.8204H15.0605C14.7887 18.8296 14.5194 18.7646 14.2816 18.6325C14.0438 18.5004 13.8464 18.3061 13.7105 18.0704" stroke="#01010B" stroke-width="1.5" stroke-linecap="round" stroke-linejoin="round"/>
<path d="M15.8105 12.0703V19.5703" stroke="#01010B" stroke-width="1.5" stroke-linecap="round" stroke-linejoin="round"/>
</g>
</g>
</g>
<defs>
<clipPath id="clip0_349_4634">
<rect width="16" height="16" fill="white" transform="translate(7.81055 7.82031)"/>
</clipPath>
<clipPath id="clip1_349_4634">
<rect width="16" height="16" fill="white" transform="translate(7.81055 7.82031)"/>
</clipPath>
<clipPath id="clip2_349_4634">
<rect width="18" height="18" fill="white" transform="translate(6.81055 6.82031)"/>
</clipPath>
</defs>
</svg>
