<svg width="30" height="31" viewBox="0 0 30 31" fill="none" xmlns="http://www.w3.org/2000/svg">
<rect x="0.5" y="1.32031" width="29" height="29" rx="14.5" fill="#F2F2F2"/>
<rect x="0.5" y="1.32031" width="29" height="29" rx="14.5" stroke="#F2F2F2"/>
<g clip-path="url(#clip0_349_4608)">
<g clip-path="url(#clip1_349_4608)">
<g clip-path="url(#clip2_349_4608)">
<path d="M21.064 15.1343L15 9.07031L8.25 15.8203H9.75V21.0703C9.75 21.4681 9.90804 21.8497 10.1893 22.131C10.4706 22.4123 10.8522 22.5703 11.25 22.5703H14.625" stroke="#01010B" stroke-width="1.5" stroke-linecap="round" stroke-linejoin="round"/>
<path d="M12.75 22.5703V18.0703C12.75 17.6725 12.908 17.291 13.1893 17.0097C13.4706 16.7283 13.8522 16.5703 14.25 16.5703H15.75C16.0338 16.5703 16.3118 16.6509 16.5516 16.8026C16.7915 16.9543 16.9833 17.1709 17.105 17.4273" stroke="#01010B" stroke-width="1.5" stroke-linecap="round" stroke-linejoin="round"/>
<path d="M21 22.5703C21 22.7186 21.044 22.8637 21.1264 22.987C21.2088 23.1103 21.3259 23.2065 21.463 23.2632C21.6 23.32 21.7508 23.3348 21.8963 23.3059C22.0418 23.277 22.1754 23.2055 22.2803 23.1006C22.3852 22.9958 22.4566 22.8621 22.4856 22.7166C22.5145 22.5711 22.4997 22.4203 22.4429 22.2833C22.3861 22.1463 22.29 22.0291 22.1667 21.9467C22.0433 21.8643 21.8983 21.8203 21.75 21.8203C21.5511 21.8203 21.3603 21.8993 21.2197 22.04C21.079 22.1806 21 22.3714 21 22.5703Z" stroke="#01010B" stroke-width="1.5" stroke-linecap="round" stroke-linejoin="round"/>
<path d="M21 18.8203C21 18.9686 21.044 19.1137 21.1264 19.237C21.2088 19.3603 21.3259 19.4565 21.463 19.5132C21.6 19.57 21.7508 19.5848 21.8963 19.5559C22.0418 19.527 22.1754 19.4555 22.2803 19.3506C22.3852 19.2458 22.4566 19.1121 22.4856 18.9666C22.5145 18.8211 22.4997 18.6703 22.4429 18.5333C22.3861 18.3963 22.29 18.2791 22.1667 18.1967C22.0433 18.1143 21.8983 18.0703 21.75 18.0703C21.5511 18.0703 21.3603 18.1493 21.2197 18.29C21.079 18.4306 21 18.6214 21 18.8203Z" stroke="#01010B" stroke-width="1.5" stroke-linecap="round" stroke-linejoin="round"/>
<path d="M17.25 21.0703C17.25 21.2186 17.294 21.3637 17.3764 21.487C17.4588 21.6103 17.5759 21.7065 17.713 21.7632C17.85 21.82 18.0008 21.8348 18.1463 21.8059C18.2918 21.777 18.4254 21.7055 18.5303 21.6006C18.6352 21.4958 18.7066 21.3621 18.7356 21.2166C18.7645 21.0711 18.7497 20.9203 18.6929 20.7833C18.6361 20.6463 18.54 20.5291 18.4167 20.4467C18.2933 20.3643 18.1483 20.3203 18 20.3203C17.8011 20.3203 17.6103 20.3993 17.4697 20.54C17.329 20.6806 17.25 20.8714 17.25 21.0703Z" stroke="#01010B" stroke-width="1.5" stroke-linecap="round" stroke-linejoin="round"/>
<path d="M21.75 18.8203L18 21.0703L21.75 22.5703" stroke="#01010B" stroke-width="1.5" stroke-linecap="round" stroke-linejoin="round"/>
</g>
</g>
</g>
<defs>
<clipPath id="clip0_349_4608">
<rect width="16" height="16" fill="white" transform="translate(7 7.82031)"/>
</clipPath>
<clipPath id="clip1_349_4608">
<rect width="16" height="16" fill="white" transform="translate(7 7.82031)"/>
</clipPath>
<clipPath id="clip2_349_4608">
<rect width="18" height="18" fill="white" transform="translate(6 6.82031)"/>
</clipPath>
</defs>
</svg>
