<svg width="24" height="25" viewBox="0 0 24 25" fill="none" xmlns="http://www.w3.org/2000/svg">
<path d="M10.7499 2.95959C11.4499 2.36959 12.5799 2.36959 13.2599 2.95959L14.8399 4.30959C15.1399 4.55959 15.7099 4.76959 16.1099 4.76959H17.8099C18.8699 4.76959 19.7399 5.63959 19.7399 6.69959V8.39959C19.7399 8.79959 19.9499 9.35959 20.1999 9.65959L21.5499 11.2396C22.1399 11.9396 22.1399 13.0696 21.5499 13.7496L20.1999 15.3296C19.9499 15.6296 19.7399 16.1896 19.7399 16.5896V18.2896C19.7399 19.3496 18.8699 20.2196 17.8099 20.2196H16.1099C15.7099 20.2196 15.1499 20.4296 14.8499 20.6796L13.2699 22.0296C12.5699 22.6196 11.4399 22.6196 10.7599 22.0296L9.17988 20.6796C8.87988 20.4296 8.30988 20.2196 7.91988 20.2196H6.16988C5.10988 20.2196 4.23988 19.3496 4.23988 18.2896V16.5796C4.23988 16.1896 4.03988 15.6196 3.78988 15.3296L2.43988 13.7396C1.85988 13.0496 1.85988 11.9296 2.43988 11.2396L3.78988 9.64959C4.03988 9.34959 4.23988 8.78959 4.23988 8.39959V6.70959C4.23988 5.64959 5.10988 4.77959 6.16988 4.77959H7.89988C8.29988 4.77959 8.85988 4.56959 9.15988 4.31959L10.7499 2.95959Z" stroke="#292D32" stroke-opacity="0.4" stroke-width="1.5" stroke-linecap="round" stroke-linejoin="round"/>
<path d="M12 8.63965V13.4696" stroke="#292D32" stroke-opacity="0.4" stroke-width="1.5" stroke-linecap="round" stroke-linejoin="round"/>
<path d="M11.9941 16.5098H12.0031" stroke="#292D32" stroke-opacity="0.4" stroke-width="2" stroke-linecap="round" stroke-linejoin="round"/>
</svg>
