<svg width="31" height="31" viewBox="0 0 31 31" fill="none" xmlns="http://www.w3.org/2000/svg">
<rect x="1.31055" y="1.32007" width="29" height="29" rx="14.5" fill="#F2F2F2"/>
<rect x="1.31055" y="1.32007" width="29" height="29" rx="14.5" stroke="#F2F2F2"/>
<g clip-path="url(#clip0_349_4596)">
<g clip-path="url(#clip1_349_4596)">
<g clip-path="url(#clip2_349_4596)">
<path d="M12.8105 12.0701C12.8105 12.6634 12.9865 13.2434 13.3161 13.7368C13.6458 14.2301 14.1143 14.6146 14.6625 14.8417C15.2107 15.0688 15.8139 15.1282 16.3958 15.0124C16.9778 14.8967 17.5123 14.6109 17.9319 14.1914C18.3514 13.7718 18.6371 13.2373 18.7529 12.6553C18.8687 12.0734 18.8092 11.4702 18.5822 10.922C18.3551 10.3738 17.9706 9.9053 17.4773 9.57566C16.9839 9.24602 16.4039 9.07007 15.8105 9.07007C15.0149 9.07007 14.2518 9.38614 13.6892 9.94875C13.1266 10.5114 12.8105 11.2744 12.8105 12.0701Z" stroke="#01010B" stroke-width="1.5" stroke-linecap="round" stroke-linejoin="round"/>
<path d="M11.3105 22.5701V21.0701C11.3105 20.2744 11.6266 19.5114 12.1892 18.9487C12.7518 18.3861 13.5149 18.0701 14.3105 18.0701H16.9355" stroke="#01010B" stroke-width="1.5" stroke-linecap="round" stroke-linejoin="round"/>
<path d="M21.0605 23.3203V23.3273" stroke="#01010B" stroke-width="1.5" stroke-linecap="round" stroke-linejoin="round"/>
<path d="M21.0605 21.0702C21.3981 21.0715 21.7262 20.959 21.9919 20.7508C22.2575 20.5425 22.4452 20.2508 22.5245 19.9227C22.6039 19.5946 22.5702 19.2494 22.429 18.9428C22.2879 18.6362 22.0474 18.3862 21.7465 18.2332C21.4482 18.0802 21.1068 18.0327 20.7779 18.0984C20.4491 18.1641 20.1522 18.3392 19.9355 18.5952" stroke="#01010B" stroke-width="1.5" stroke-linecap="round" stroke-linejoin="round"/>
</g>
</g>
</g>
<defs>
<clipPath id="clip0_349_4596">
<rect width="16" height="16" fill="white" transform="translate(7.81055 7.82007)"/>
</clipPath>
<clipPath id="clip1_349_4596">
<rect width="16" height="16" fill="white" transform="translate(7.81055 7.82007)"/>
</clipPath>
<clipPath id="clip2_349_4596">
<rect width="18" height="18" fill="white" transform="translate(6.81055 6.82007)"/>
</clipPath>
</defs>
</svg>
